<svg xmlns="http://www.w3.org/2000/svg" xmlns:xlink="http://www.w3.org/1999/xlink" width="137" height="33" viewBox="0 0 137 33">
  <defs>
    <linearGradient id="linear-gradient" x1="2.446" y1="2.53" x2="-1.79" y2="-1.888" gradientUnits="objectBoundingBox">
      <stop offset="0" stop-color="#e82a73"/>
      <stop offset="0.113" stop-color="#de2d7a"/>
      <stop offset="0.3" stop-color="#c5388f"/>
      <stop offset="0.54" stop-color="#9b4ab0"/>
      <stop offset="0.818" stop-color="#6262de"/>
      <stop offset="0.994" stop-color="#3b73ff"/>
    </linearGradient>
    <linearGradient id="linear-gradient-2" x1="1.276" y1="1.309" x2="-2.96" y2="-3.109" gradientUnits="objectBoundingBox">
      <stop offset="0" stop-color="#ff3c82"/>
      <stop offset="0.103" stop-color="#f53e88"/>
      <stop offset="0.274" stop-color="#dc4598"/>
      <stop offset="0.492" stop-color="#b251b2"/>
      <stop offset="0.745" stop-color="#7961d7"/>
      <stop offset="0.994" stop-color="#3b73ff"/>
    </linearGradient>
    <linearGradient id="linear-gradient-3" x1="1.063" y1="1.847" x2="-1.218" y2="-2.571" xlink:href="#linear-gradient"/>
    <linearGradient id="linear-gradient-4" x1="1.757" y1="1.068" x2="-2.479" y2="-1.311" xlink:href="#linear-gradient"/>
    <linearGradient id="linear-gradient-5" x1="-0.489" y1="-1.249" x2="0.957" y2="2.04" gradientUnits="objectBoundingBox">
      <stop offset="0" stop-color="#e82a73"/>
      <stop offset="0.114" stop-color="#de286e"/>
      <stop offset="0.303" stop-color="#c52361"/>
      <stop offset="0.544" stop-color="#9b1a4d"/>
      <stop offset="0.825" stop-color="#620f30"/>
      <stop offset="0.994" stop-color="#3d081e"/>
    </linearGradient>
    <linearGradient id="linear-gradient-7" x1="-0.332" y1="-0.701" x2="1.533" y2="1.583" xlink:href="#linear-gradient-5"/>
    <linearGradient id="linear-gradient-8" x1="-38.762" y1="70.353" x2="-37.757" y2="74.594" xlink:href="#linear-gradient-5"/>
  </defs>
  <g id="Group_2859" data-name="Group 2859" transform="translate(-34 -32)">
    <text id="fireflies" transform="translate(82 57)" font-size="24" font-family="Poppins-SemiBold, Poppins" font-weight="600"><tspan x="0" y="0">fireflies</tspan></text>
    <g id="Group_97" data-name="Group 97" transform="translate(34 33)">
      <rect id="Rectangle_62" data-name="Rectangle 62" width="10.521" height="10.443" transform="translate(0 0)" fill="url(#linear-gradient)"/>
      <rect id="Rectangle_63" data-name="Rectangle 63" width="10.521" height="10.443" transform="translate(12.461 12.606)" fill="url(#linear-gradient-2)"/>
      <path id="Path_79" data-name="Path 79" d="M122.21,519.563H111.689v10.443h19.539v-1.492a8.984,8.984,0,0,0-9.018-8.95Z" transform="translate(-99.228 -519.563)" fill="url(#linear-gradient-3)"/>
      <path id="Path_80" data-name="Path 80" d="M91.421,540.221v10.443h0a8.985,8.985,0,0,0,9.018,8.951h1.5V540.221Z" transform="translate(-91.421 -527.614)" fill="url(#linear-gradient-4)"/>
      <path id="Path_81" data-name="Path 81" d="M91.421,519.563l10.521,10.443H91.421Z" transform="translate(-91.421 -519.563)" opacity="0.18" fill="url(#linear-gradient-5)"/>
      <path id="Path_82" data-name="Path 82" d="M111.689,540.221l10.521,10.443H111.689Z" transform="translate(-99.228 -527.614)" opacity="0.18" fill="url(#linear-gradient-5)"/>
      <path id="Path_83" data-name="Path 83" d="M91.421,550.664a8.985,8.985,0,0,0,9.018,8.951h1.5V540.221Z" transform="translate(-91.421 -527.614)" opacity="0.18" fill="url(#linear-gradient-7)"/>
      <path id="Path_84" data-name="Path 84" d="M122.21,519.563a8.984,8.984,0,0,1,9.018,8.95v1.492H111.689Z" transform="translate(-99.228 -519.563)" opacity="0.18" fill="url(#linear-gradient-8)"/>
    </g>
  </g>
</svg>
