<?xml version="1.0" encoding="utf-8"?>
<!-- Generator: Adobe Illustrator 16.0.0, SVG Export Plug-In . SVG Version: 6.00 Build 0)  -->
<!DOCTYPE svg PUBLIC "-//W3C//DTD SVG 1.1//EN" "http://www.w3.org/Graphics/SVG/1.1/DTD/svg11.dtd">
<svg version="1.1" id="Layer_1" xmlns="http://www.w3.org/2000/svg" xmlns:xlink="http://www.w3.org/1999/xlink" x="0px" y="0px"
	 width="16px" height="16px" viewBox="0 0 16 16" enable-background="new 0 0 16 16" xml:space="preserve">
<path fill="#FFFFFF" d="M6,5.655v4.691L10.02,8L6,5.655z M5.168,3.626l7.006,4.087c0.05,0.029,0.092,0.071,0.12,0.122
	c0.029,0.051,0.044,0.108,0.044,0.166s-0.015,0.115-0.044,0.166c-0.028,0.05-0.07,0.092-0.12,0.122l-7.006,4.086
	C5.117,12.404,5.06,12.421,5,12.421c-0.059,0-0.117-0.016-0.167-0.045s-0.093-0.071-0.122-0.123
	c-0.029-0.051-0.045-0.108-0.044-0.167V3.914c0-0.059,0.016-0.116,0.045-0.167s0.072-0.093,0.123-0.122s0.108-0.044,0.167-0.044
	S5.117,3.597,5.168,3.626L5.168,3.626z"/>
</svg>
