<?xml version="1.0" encoding="utf-8"?>
<!-- Generator: Adobe Illustrator 16.0.0, SVG Export Plug-In . SVG Version: 6.00 Build 0)  -->
<!DOCTYPE svg PUBLIC "-//W3C//DTD SVG 1.1//EN" "http://www.w3.org/Graphics/SVG/1.1/DTD/svg11.dtd">
<svg version="1.1" id="Layer_1" xmlns="http://www.w3.org/2000/svg" xmlns:xlink="http://www.w3.org/1999/xlink" x="0px" y="0px"
	 width="16px" height="16px" viewBox="0 0 16 16" enable-background="new 0 0 16 16" xml:space="preserve">
<path fill="#E82A73" d="M8,14.666c-1.318,0-2.607-0.391-3.704-1.123C3.2,12.81,2.345,11.769,1.84,10.551
	C1.336,9.332,1.204,7.992,1.461,6.698c0.257-1.293,0.893-2.481,1.825-3.414C4.218,2.353,5.406,1.717,6.699,1.46
	c1.293-0.257,2.634-0.125,3.852,0.379c1.219,0.505,2.26,1.359,2.992,2.456c0.732,1.097,1.124,2.385,1.124,3.704
	c0,1.769-0.702,3.464-1.952,4.714C11.464,13.963,9.768,14.666,8,14.666z M8,13.333c1.055,0,2.086-0.313,2.963-0.899
	s1.561-1.419,1.963-2.394c0.404-0.975,0.51-2.047,0.304-3.081c-0.206-1.035-0.714-1.984-1.46-2.73
	c-0.746-0.746-1.696-1.253-2.73-1.459c-1.035-0.206-2.107-0.1-3.081,0.304C4.983,3.477,4.151,4.16,3.564,5.037
	C2.979,5.914,2.666,6.945,2.666,8c0,0.7,0.138,1.395,0.406,2.041s0.661,1.234,1.156,1.73c0.495,0.495,1.083,0.888,1.73,1.156
	C6.606,13.195,7.3,13.333,8,13.333z M8,10c-0.396,0-0.782-0.117-1.111-0.337C6.56,9.443,6.304,9.131,6.152,8.766
	C6.001,8.4,5.961,7.998,6.039,7.61c0.077-0.388,0.268-0.744,0.547-1.024s0.636-0.47,1.024-0.547S8.4,6.001,8.766,6.152
	C9.131,6.304,9.443,6.56,9.663,6.889C9.883,7.218,10,7.604,10,8c0,0.53-0.211,1.039-0.586,1.414S8.53,10,8,10z"/>
</svg>
