<svg width="16" height="16" viewBox="0 0 16 16" fill="none" xmlns="http://www.w3.org/2000/svg">
<path d="M8.00001 14.666C6.6814 14.666 5.39241 14.275 4.29602 13.5424C3.19964 12.8098 2.34512 11.7686 1.84051 10.5504C1.3359 9.33212 1.20387 7.99161 1.46112 6.69834C1.71836 5.40506 2.35333 4.21712 3.28573 3.28472C4.21813 2.35233 5.40607 1.71736 6.69934 1.46011C7.99261 1.20286 9.33313 1.33489 10.5514 1.8395C11.7696 2.34411 12.8108 3.19863 13.5434 4.29502C14.276 5.3914 14.667 6.6804 14.667 7.999C14.667 9.7672 13.9646 11.463 12.7143 12.7133C11.464 13.9636 9.76821 14.666 8.00001 14.666ZM8.00001 13.333C9.05474 13.3328 10.0857 13.0199 10.9626 12.4337C11.8395 11.8476 12.5229 11.0147 12.9263 10.0402C13.3298 9.06567 13.4353 7.99341 13.2294 6.95897C13.0235 5.92454 12.5155 4.97438 11.7697 4.22865C11.0238 3.48292 10.0735 2.9751 9.03906 2.7694C8.00459 2.56371 6.93235 2.66938 5.95793 3.07305C4.98351 3.47672 4.15067 4.16027 3.56471 5.03725C2.97876 5.91424 2.66601 6.94528 2.66601 8C2.66601 8.70043 2.80399 9.39399 3.07206 10.0411C3.34013 10.6882 3.73304 11.2761 4.22836 11.7714C4.72368 12.2666 5.31171 12.6594 5.95885 12.9273C6.606 13.1953 7.29959 13.3331 8.00001 13.333ZM8.00001 10C7.60445 10 7.21777 9.88271 6.88887 9.66294C6.55997 9.44318 6.30363 9.13082 6.15225 8.76537C6.00088 8.39992 5.96127 7.99778 6.03844 7.60982C6.11561 7.22186 6.30609 6.8655 6.5858 6.58579C6.8655 6.30609 7.22187 6.1156 7.60983 6.03843C7.99779 5.96126 8.39993 6.00087 8.76538 6.15224C9.13083 6.30362 9.44319 6.55996 9.66295 6.88886C9.88271 7.21776 10 7.60444 10 8C10 8.53044 9.7893 9.03914 9.41422 9.41422C9.03915 9.78929 8.53044 10 8.00001 10Z" fill="white"/>
</svg>
